# xmcd
#
# Track frame offsets:
#	150
#	15367
#	52705
#
# Disc length: 3135 seconds
#
# Revision: 0
# Processed by: cddbd v1.5.2PL0 Copyright (c) Steve Scherf et al.
# Submitted via: EasyCDDAExtractor 2010.6.0.0
#
DISCID=110c3d03
DTITLE=Various Artist - Gigolo
DYEAR=2011
DGENRE=Pop
TTITLE0=Anders_Fahrenkrog - Gigolo
TTITLE1=Anders_Fahrenkrog - Gigolo (Dirt´n Devil Club Mix)
TTITLE2=Video - Video
EXTD=
EXTT0=
EXTT1=
EXTT2=
PLAYORDER=
